<svg xmlns="http://www.w3.org/2000/svg" viewBox="0 0 288 288" width="62" height="62"><g stroke-width="9.661" fill="none" fill-rule="evenodd"><path d="M127.593 45.475V2M69.579 69.53 38.857 38.809M45.571 127.545H2.097M69.627 185.56l-30.77 30.77M185.608 69.482l30.77-30.722M191.453 105.373c-10.039-29.086-38.446-47.728-69.124-45.364-30.678 2.364-55.893 25.14-61.356 55.42-5.463 30.28 10.203 60.43 38.12 73.367" stroke="#FF8700"></path><path d="m137.689 266.664 21.35-36.616M208.456 266.664l21.4-36.616M162.76 285.116l32.122-55.068" stroke="#288ADB"></path><path d="M282.17 168.314a43.958 43.958 0 0 0-43.958-44.006h-7.44c-14.018-16.65-36.73-23.142-57.431-16.415-20.7 6.727-35.258 25.33-36.811 47.04h-9.227c-15.846 0-28.693 12.847-28.693 28.694s12.847 28.693 28.693 28.693h111.102c24.22-.106 43.791-19.785 43.765-44.006Z" stroke="#BABABA"></path></g></svg>