<svg xmlns="http://www.w3.org/2000/svg" viewBox="0 0 288 288" width="62" height="62"><g stroke-width="9.593" fill="none" fill-rule="evenodd"><path d="M143.898 21v47.966M0 164.898h47.966M211.722 97.074l33.912-33.912M76.074 97.074 42.162 63.162M42.162 266.634l33.912-33.912M220.356 159.142c-2.666-35.73-29.7-64.861-65.133-70.183-35.433-5.322-69.833 14.581-82.878 47.952-13.045 33.37-1.264 71.327 28.384 91.446" stroke="#FF8700"></path><path d="M239.83 169.695h-7.53a52.763 52.763 0 0 0-92.958 28.78h-9.834c-15.894 0-28.78 12.885-28.78 28.78 0 15.894 12.886 28.779 28.78 28.779h110.323c23.841 0 43.169-19.328 43.169-43.17 0-23.841-19.328-43.17-43.17-43.17Z" stroke="#BABABA"></path></g></svg>
